<?xml version="1.0" encoding="UTF-8"?>
<svg width="392px" height="438px" viewBox="0 0 392 438" version="1.1" xmlns="http://www.w3.org/2000/svg" xmlns:xlink="http://www.w3.org/1999/xlink">
    <!-- Generator: Sketch 50 (54983) - http://www.bohemiancoding.com/sketch -->
    <title>illustration</title>
    <desc>Created with Sketch.</desc>
    <defs></defs>
    <g id="Page-1" stroke="none" stroke-width="1" fill="none" fill-rule="evenodd">
        <g id="web" transform="translate(-599.000000, -85.000000)">
            <g id="hero" transform="translate(89.000000, 85.000000)">
                <g id="illustration" transform="translate(510.000000, 0.000000)">
                    <path d="M51.2087536,189.359814 L78,89.0583075 C87.9324678,51.872972 126.128994,29.7801577 163.31433,39.7126254 C175.600005,42.9942169 186.753632,49.5747667 195.567116,58.7415095 C231.463236,96.0764608 254.940873,123.829282 266,142 C276.940614,159.975995 306.345168,218.880648 354.213663,318.71396 L354.213711,318.713936 C373.971577,359.920437 356.584023,409.34182 315.377522,429.099686 C289.730775,441.396896 259.565653,439.65986 235.5,424.5 L31.17614,295.788712 C12.946529,284.305194 7.47774012,260.217944 18.961258,241.988333 C19.5957759,240.981062 20.2760685,240.003364 21,239.058307 L37.0822389,218.063753 C43.6299535,209.516041 48.4301308,199.762468 51.2087536,189.359814 Z" id="bg" fill="#FF7866"></path>
                    <polygon id="filler-neck" fill="#FFFFFF" points="133.811528 148.17423 208.965103 152.090468 208.965103 208.875926 133.811528 208.875926"></polygon>
                    <g id="shirt" transform="translate(39.706182, 151.437762)" fill="#FFFFFF" stroke="#000021" stroke-width="1.30709338">
                        <path d="M281.009018,212.129582 C271.414719,174.721161 265.533135,149.265611 263.364266,135.762932 C255.742099,88.3097754 253.040947,61.3755871 249.64057,52.8692188 C242.362974,34.6636176 217.757828,40.2006889 207.162462,33.2880267 C200.098886,28.6795852 187.246535,17.5835763 168.605411,0 C170.149622,15.6716138 170.149622,25.6797786 168.605411,30.0244947 C166.289094,36.5415687 149.717733,49.6056868 140.504509,49.6056868 C131.291286,49.6056868 117.980141,42.1801797 107.175533,30.0244947 C99.9724604,21.9207046 95.8335679,11.9125397 94.7588551,0 C82.7182093,13.4060223 73.1334056,22.3263432 66.0044439,26.7609626 C48.3746984,37.7276666 30.2926067,42.576879 20.2587897,52.8692188 C-3.92105607,77.6720622 0.653509345,131.193987 0.653509345,167.745546 C0.653509345,192.113252 4.35672897,215.175545 11.7631682,236.932425" id="filler-shirt"></path>
                        <path d="M211.737028,91.3788968 C211.177299,125.799658 211.177299,147.774107 211.737028,157.302244 C213.733854,191.293731 221.10945,214.381944 224.153705,216.698527 C228.477961,219.98915 247.429732,218.248599 281.009018,211.476875 C271.414719,174.503592 265.533135,149.265611 263.364266,135.762932 C255.742099,88.3097754 253.040947,61.3755871 249.64057,52.8692188 C242.362974,34.6636176 216.258969,29.7260633 195.276274,18.6020787 C181.287811,11.186089 172.397523,4.98539606 168.605411,0 C170.149622,15.6716138 170.149622,25.6797786 168.605411,30.0244947 C166.289094,36.5415687 149.717733,49.6056868 140.504509,49.6056868 C131.291286,49.6056868 117.980141,42.1801797 107.175533,30.0244947 C99.9724604,21.9207046 95.8335679,11.9125397 94.7588551,0 C82.7182093,13.4060223 73.1334056,22.3263432 66.0044439,26.7609626 C48.3746984,37.7276666 30.2926067,42.576879 20.2587897,52.8692188 C-3.92105607,77.6720622 0.653509345,131.193987 0.653509345,167.745546 C0.653509345,192.113252 4.35672897,215.175545 11.7631682,236.932425 C46.5676905,236.943525 64.6481157,235.638113 66.0044439,233.016187 C66.9816111,231.127219 61.207203,209.373939 60.7763691,167.745546 C60.6649208,156.977098 57.833047,128.040448 52.2807476,80.9355943" id="upper-shirt"></path>
                    </g>
                    <g id="hair" transform="translate(111.592210, 0.662582)" fill="#040425" stroke="#000021" stroke-width="1.30709338">
                        <path d="M23.390246,131.688015 C19.2263559,128.279981 16.5862036,126.745964 15.469789,127.085964 C2.95386803,130.897641 -1.76705541,130.308863 1.30701869,125.31963 C4.79240186,119.662841 6.97076635,109.654676 7.84211214,95.2951352 L27.4473925,113.244561" id="left-back-hair"></path>
                        <path d="M92.798327,134.317497 C95.4123644,141.373047 97.3728924,144.030547 98.6799111,142.289996 C100.640439,139.679171 120.063245,120.26071 124.820285,103.127612 C129.577325,85.9945145 123.624959,85.0372121 120.24572,64.6179341 C116.86648,44.1986562 117.506391,37.0174389 111.750098,24.150137 C105.993806,11.2828352 98.9731027,6.94012544 92.798327,3.26353203 C86.6235514,-0.413061388 82.6821777,4.29381745 77.7676121,3.91623843 C72.8530465,3.53865941 82.3843264,-1.12270726 67.3114626,1.30541281 C52.2385987,3.73353288 49.7095655,2.30669426 37.2500327,10.4433025 C24.7904998,18.5799107 25.4868645,22.8447242 16.3377336,34.5934395 C7.1886028,46.3421548 2.05647758,59.1976067 1.30701869,66.5760534 C0.807379427,71.4950178 4.2927626,75.8463938 11.7631682,79.6301815 L92.798327,134.317497 Z"></path>
                    </g>
                    <g id="face" transform="translate(116.820285, 33.950609)" stroke="#040425" stroke-width="1.30709338">
                        <path d="M91.4913083,118.139859 L86.9167429,108.349263 L92.1448177,86.1572455 C102.26433,83.5655243 109.01726,78.9965794 112.403607,72.450411 C117.483129,62.6311584 115.503178,49.9499072 112.403607,46.9948612 C110.337227,45.0248305 107.06968,46.1126745 102.600967,50.2583932 C109.966033,30.0686236 106.48065,15.4915139 92.1448177,6.52706405 C70.6410691,-6.91961073 36.4429748,5.29988461 22.8728271,11.7487153 C9.30267933,18.197546 13.7972143,40.6156188 11.1096589,45.036742 C8.42210343,49.4578651 2.78420119,36.4776409 0.653509345,48.300274 C-1.4771825,60.1229071 3.63414506,73.6125354 5.22807476,77.6720622 C6.82200447,81.7315891 9.14913083,83.5464199 13.7236962,81.5883007 C16.7734065,80.2828879 18.0804252,86.8099519 17.6447523,101.169493 L17.6447523,117.487153" id="faceshape" fill="#FFFFFF"></path>
                        <path d="M15.5305923,82.6230962 C16.7001829,84.3760843 18.1621712,89.6350484 19.9165572,98.3999886 C22.5481361,111.547399 26.1403738,116.18174 32.6754673,122.708804 C39.2105607,129.235868 45.0921448,133.152107 61.4298784,125.972336 C77.7676121,118.792566 80.442873,115.053375 85.7060309,104.535447 C89.2148028,97.5234946 91.2615864,91.6802011 91.8463817,87.0055663" id="kin"></path>
                        <path d="M46.3991635,52.8692188 C45.0710136,61.8239424 42.4569762,69.4388505 38.5570514,75.713943 C34.6571265,81.9890356 38.3603461,85.4701364 49.6667102,86.1572455" id="nose"></path>
                    </g>
                    <rect id="bottom-line" fill="#040425" transform="translate(195.815979, 375.532202) rotate(-6.000000) translate(-195.815979, -375.532202) " x="-0.236824646" y="372.26867" width="392.105607" height="6.52706405"></rect>
                </g>
            </g>
        </g>
    </g>
</svg>